# xmcd
#
# Track frame offsets: 
#        150
#        19345
#        34515
#        63458
#        100752
#        144276
#        172447
#        193209
#        224208
#        253795
#        281311
#        300665
#        331941
#
# Disc length: 4755 seconds
#
# Revision: 2
# Processed by: cddbd v1.5.2PL0 Copyright (c) Steve Scherf et al.
# Submitted via: ExactAudioCopyFreeDBPlugin 1.0
#
DISCID=c712910d
DTITLE=Dave Alvin and The Guilty Men - The Great American Music Galaxy
DYEAR=1900
DGENRE=Blues
TTITLE0=All Night Worker
TTITLE1=So Long Baby Goodbye
TTITLE2=Sinful Daughter
TTITLE3=Abilene
TTITLE4=Out of Control
TTITLE5=Dry River
TTITLE6=Trouble Bound
TTITLE7=Somewhere in Time
TTITLE8=Ashgrove
TTITLE9=East Virgina Blues
TTITLE10=Mary Brown
TTITLE11=Out in California
TTITLE12=Marie Marie
EXTD=
EXTT0=
EXTT1=
EXTT2=
EXTT3=
EXTT4=
EXTT5=
EXTT6=
EXTT7=
EXTT8=
EXTT9=
EXTT10=
EXTT11=
EXTT12=
PLAYORDER=
